<svg xmlns="http://www.w3.org/2000/svg" xmlns:xlink="http://www.w3.org/1999/xlink" width="1920" zoomAndPan="magnify" viewBox="0 0 1440 1439.999935" height="1920" preserveAspectRatio="xMidYMid meet" version="1.0"><defs><clipPath id="c63c3414df"><path d="M 0.761719 0.441406 L 1305.878906 0.441406 L 1305.878906 1305.558594 L 0.761719 1305.558594 Z M 0.761719 0.441406 " clip-rule="nonzero"/></clipPath><clipPath id="fc88eb70cf"><rect x="0" width="1306" y="0" height="1306"/></clipPath></defs><g transform="matrix(1, 0, 0, 1, 65, 67)"><g clip-path="url(#fc88eb70cf)"><g clip-path="url(#c63c3414df)"><path stroke-linecap="butt" transform="matrix(4.723127, -10.205768, 10.205768, 4.723127, 78.585132, 1065.160858)" fill="none" stroke-linejoin="miter" d="M 0.000082654 11.500125 L 41.512722 11.500208 " stroke="#ffc62a" stroke-width="23" stroke-opacity="1" stroke-miterlimit="4"/><path stroke-linecap="butt" transform="matrix(-9.193231, 6.476891, -6.476891, -9.193231, 1188.353508, 293.036863)" fill="none" stroke-linejoin="miter" d="M -0.0000457207 11.499782 L 78.521953 11.499813 " stroke="#ffc62a" stroke-width="23" stroke-opacity="1" stroke-miterlimit="4"/><path stroke-linecap="butt" transform="matrix(-7.890179, 8.013159, -8.013159, -7.890179, 1205.974882, 278.077441)" fill="none" stroke-linejoin="miter" d="M -0.0000756977 11.499992 L 116.339742 11.499922 " stroke="#ffc62a" stroke-width="23" stroke-opacity="1" stroke-miterlimit="4"/><path stroke-linecap="butt" transform="matrix(-4.723127, 10.205768, -10.205768, -4.723127, 1231.270856, 240.838802)" fill="none" stroke-linejoin="miter" d="M -0.0000163862 11.499839 L 41.512623 11.499922 " stroke="#ffc62a" stroke-width="23" stroke-opacity="1" stroke-miterlimit="4"/><path stroke-linecap="butt" transform="matrix(9.193231, -6.476891, 6.476891, 9.193231, 121.575524, 1012.962854)" fill="none" stroke-linejoin="miter" d="M -0.0000125438 11.499837 L 78.521986 11.499867 " stroke="#ffc62a" stroke-width="23" stroke-opacity="1" stroke-miterlimit="4"/><path stroke-linecap="butt" transform="matrix(7.890179, -8.013159, 8.013159, 7.890179, 103.895609, 1027.922317)" fill="none" stroke-linejoin="miter" d="M -0.0000534264 11.500045 L 116.339764 11.499975 " stroke="#ffc62a" stroke-width="23" stroke-opacity="1" stroke-miterlimit="4"/><path stroke-linecap="butt" transform="matrix(-10.205768, -4.723127, 4.723127, -10.205768, 1065.477502, 1228.59686)" fill="none" stroke-linejoin="miter" d="M 0.0000420557 11.499987 L 41.512682 11.50007 " stroke="#ffc62a" stroke-width="23" stroke-opacity="1" stroke-miterlimit="4"/><path stroke-linecap="butt" transform="matrix(6.476891, 9.193231, -9.193231, 6.476891, 293.389904, 118.865053)" fill="none" stroke-linejoin="miter" d="M -0.000107638 11.4999 L 78.521891 11.49993 " stroke="#ffc62a" stroke-width="23" stroke-opacity="1" stroke-miterlimit="4"/><path stroke-linecap="butt" transform="matrix(8.013159, 7.890179, -7.890179, 8.013159, 278.401214, 101.214434)" fill="none" stroke-linejoin="miter" d="M 0.0000829559 11.500096 L 116.33941 11.500022 " stroke="#ffc62a" stroke-width="23" stroke-opacity="1" stroke-miterlimit="4"/><path stroke-linecap="butt" transform="matrix(10.205768, 4.723127, -4.723127, 10.205768, 244.378462, 77.402858)" fill="none" stroke-linejoin="miter" d="M 0.0000126424 11.500028 L 41.512968 11.499965 " stroke="#ffc62a" stroke-width="23" stroke-opacity="1" stroke-miterlimit="4"/><path stroke-linecap="butt" transform="matrix(-6.476891, -9.193231, 9.193231, -6.476891, 1016.539203, 1187.134751)" fill="none" stroke-linejoin="miter" d="M -0.000151661 11.499932 L 78.521847 11.499962 " stroke="#ffc62a" stroke-width="23" stroke-opacity="1" stroke-miterlimit="4"/></g><path stroke-linecap="butt" transform="matrix(-8.013159, -7.890179, 7.890179, -8.013159, 1118.261226, 1116.640493)" fill="none" stroke-linejoin="miter" d="M 0.0000233397 0.500114 L 116.339597 0.499797 " stroke="#ffc62a" stroke-width="1" stroke-opacity="1" stroke-miterlimit="4"/></g></g></svg>